<?xml version="1.0" encoding="utf-8"?>
<!-- Generator: Adobe Illustrator 26.0.2, SVG Export Plug-In . SVG Version: 6.00 Build 0)  -->
<svg version="1.1" id="layer" xmlns="http://www.w3.org/2000/svg" xmlns:xlink="http://www.w3.org/1999/xlink" x="0px" y="0px"
	 viewBox="0 0 619 108" style="enable-background:new 0 0 619 108;" xml:space="preserve">
<path d="M102,53.6c0,25-20.1,45.3-45,45.3S12,78.6,12,53.6S32.1,8.3,57,8.3S102,28.6,102,53.6 M151.3,53.6
	c0,23.5-10.1,42.6-22.5,42.6s-22.5-19.1-22.5-42.6S116.4,11,128.8,11S151.3,30,151.3,53.6 M171.5,53.6c0,21.1-3.5,38.2-7.9,38.2
	s-7.9-17.1-7.9-38.2s3.5-38.2,7.9-38.2S171.5,32.5,171.5,53.6 M295.6,12.2h0.1v-1h-25.6l-23.7,55.9l-23.8-55.8H195v1h0.1
	c4.7,1.1,7,2.6,7,8.3V87c0,5.7-2.4,7.2-7,8.3H195v1h18.7v-1h-0.1c-4.7-1.1-7-2.6-7-8.3V24.5l30.5,71.8h1.7l31.4-73.8v66.2
	c-0.4,4.5-2.7,5.9-7,6.8h-0.1v1h32.6v-1h-0.1c-4.2-1-6.6-2.3-7-6.8v-68l0,0C288.6,14.9,291,13.3,295.6,12.2 M310.5,56.2
	c0.5-11.9,4.8-20.5,12-20.7c2.2,0,4.1,0.8,5.5,2.2c3.1,3,4.5,9.2,4.3,18.5H310.5z M310.2,59.5h38.2v-0.2c-0.1-9.1-2.7-16.2-7.8-21.1
	c-4.4-4.2-10.9-6.5-17.8-6.5h-0.2c-3.6,0-7.9,0.9-11,2.4c-3.5,1.6-6.6,4.1-9.2,7.3c-4.2,5.2-6.7,12.1-7.3,20c0,0.2,0,0.5-0.1,0.7
	c0,0.2,0,0.4,0,0.7c-0.1,1.1-0.1,2.2-0.1,3.3c0.4,17.8,10,32,27.1,32c15,0,23.7-10.9,25.9-25.6l-1.1-0.4
	c-3.8,7.9-10.7,12.7-18.5,12.1C317.6,83.4,309.4,72.6,310.2,59.5 M391.5,83.6c-1.3,3-3.9,4.6-7.4,4.6s-6.7-2.4-9-6.8
	c-2.4-4.7-3.7-11.3-3.7-19.2c0-16.3,5.1-26.9,13-26.9c3.3,0,5.9,1.6,7.1,4.5V83.6z M416.9,95.3c-4.7-1.1-7-2.7-7-8.7V7.3l-28.4,8.4
	v1h0.2c3.9-0.3,6.6,0.2,8.1,1.6c1.2,1.1,1.8,2.8,1.8,5.2v10.9c-2.8-1.8-6.1-2.7-10.2-2.7c-8.2,0-15.7,3.4-21.1,9.7
	c-5.6,6.5-8.6,15.4-8.6,25.8c0,18.5,9.1,30.9,22.6,30.9c7.9,0,14.3-4.3,17.2-11.7v9.8H417v-1L416.9,95.3z M441.2,18.1
	c0-5.8-4.3-10.1-10.1-10.1c-5.7,0-10.2,4.4-10.2,10.1s4.5,10.1,10.2,10.1C436.8,28.2,441.2,23.9,441.2,18.1 M447.9,95.3
	c-4.7-1.1-7-2.7-7-8.7l0,0V32l-25.5,7.3v1h0.2c5.5,0.5,7,2.4,7,8.8v47.2H448v-1L447.9,95.3z M513.1,95.3c-4.7-1.1-7-2.7-7-8.7V32
	l-24.2,7.1v1h0.1c4.5,0.5,5.8,2.5,5.8,8.9v34.5c-1.5,3-4.3,4.7-7.7,4.9c-5.5,0-8.6-3.7-8.6-10.5V32L446,39.3v1h0.2
	c5.5,0.5,7,2.4,7,8.8v29.2c0,2,0.2,4.1,0.5,6.1l0.5,2c2.2,7.7,7.8,11.8,16.6,11.8c7.5,0,14.1-4.6,17-11.9v10.1h25.5v-1L513.1,95.3z
	 M612,96.3v-1h-0.1c-5.1-1.2-7-3.4-7-7.9V50.3c0-11.6-6.5-18.5-17.4-18.5c-7.9,0-14.6,4.6-17.2,11.7c-2-7.6-7.9-11.7-16.7-11.7
	c-7.7,0-13.7,4-16.2,10.9V32l-25.5,7v1h0.2c5.4,0.5,7,2.4,7,8.7v47.6h23.8v-1h-0.1c-4-0.9-5.3-2.7-5.3-7.1V45.6
	c1.1-2.5,3.2-5.5,7.5-5.5c5.3,0,8,3.7,8,10.9v45.3h23.8v-1h-0.1c-4-0.9-5.3-2.7-5.3-7.1V50.3c0-1.4-0.1-2.8-0.3-4.2
	c1.1-2.7,3.4-5.9,7.8-5.9c5.4,0,8,3.6,8,10.9v45.3L612,96.3L612,96.3z"/>
</svg>
